<svg width="512" height="544" viewBox="0 0 512 544" fill="none" xmlns="http://www.w3.org/2000/svg">
  <path d="M128 0L0 384L512 384L128 0Z" fill="#B70589"/>
  <path d="M0 384V0L384 384H0Z" fill="#FF0099"/>
  <path d="M384 384L512 0V384H384Z" fill="#6E0A78"/>
  <path opacity="0.5" d="M128 0L0 384L512 384L128 0Z" fill="#B70589"/>
  <path d="M512 544V448H492L470 514L448 448H428V544H442V470L467 544H473L498 470V544H512Z" fill="black"/>
  <path d="M340 532.313C346.779 539.409 356.731 544 369.856 544C390.048 544 400 531.896 400 517.565C400 499.896 386.154 493.635 374.038 488.209C364.952 484.035 356.731 480.417 356.731 472.487C356.731 464.835 362.788 459.826 371.154 459.826C378.654 459.826 385.865 462.33 391.202 467.896L398.125 457.878C391.635 451.617 382.548 448 371.587 448C354.423 448 342.74 458.852 342.74 473.183C342.74 490.017 356.154 495.583 367.837 500.73C377.5 505.043 386.154 509.078 386.154 518.4C386.154 525.774 380.817 532.174 369.712 532.174C360.337 532.174 352.115 527.722 347.067 522.017L340 532.313Z" fill="black"/>
  <path d="M314 544V448H300V544H314Z" fill="black"/>
  <path d="M250.835 544L272 448H257.511L244 520L228 448H216L200 520L186.489 448H172L193.307 544H207.511L222 472L236.489 544H250.835Z" fill="black"/>
  <path d="M148 544V532H110V500H146V488H110L110 460H148V448H96V544H148Z" fill="black"/>
  <path d="M68 544V448H54V516L14.5714 448H0V544H14V474L54 544H68Z" fill="black"/>
</svg>
