<svg width="800" height="418" viewBox="0 0 800 418" fill="none" xmlns="http://www.w3.org/2000/svg">
<rect width="800" height="418" fill="white"/>
<path d="M336 73L272 265L528 265L336 73Z" fill="#B70589"/>
<path d="M272 265V73L464 265H272Z" fill="#FF0099"/>
<path d="M464 265L528 73V265H464Z" fill="#6E0A78"/>
<path opacity="0.5" d="M336 73L272 265L528 265L336 73Z" fill="#B70589"/>
<path d="M528 345V297H518L507 330L496 297H486V345H493V308L505.5 345H508.5L521 308V345H528Z" fill="black"/>
<path d="M442 339.157C445.389 342.704 450.365 345 456.928 345C467.024 345 472 338.948 472 331.783C472 322.948 465.077 319.817 459.019 317.104C454.476 315.017 450.365 313.209 450.365 309.243C450.365 305.417 453.394 302.913 457.577 302.913C461.327 302.913 464.933 304.165 467.601 306.948L471.062 301.939C467.817 298.809 463.274 297 457.793 297C449.212 297 443.37 302.426 443.37 309.591C443.37 318.009 450.077 320.791 455.918 323.365C460.75 325.522 465.077 327.539 465.077 332.2C465.077 335.887 462.409 339.087 456.856 339.087C452.168 339.087 448.058 336.861 445.534 334.009L442 339.157Z" fill="black"/>
<path d="M429 345V297H422V345H429Z" fill="black"/>
<path d="M397.418 345L408 297H400.756L394 333L386 297H380L372 333L365.244 297H358L368.653 345H375.756L383 309L390.244 345H397.418Z" fill="black"/>
<path d="M346 345V339H327V323H345V317H327L327 303H346V297H320V345H346Z" fill="black"/>
<path d="M306 345V297H299V331L279.286 297H272V345H279V310L299 345H306Z" fill="black"/>
</svg>
